<?xml version="1.0" encoding="UTF-8" standalone="no"?>
<!-- Created with Inkscape (http://www.inkscape.org/) -->

<svg
   version="1.1"
   id="svg1"
   width="24.999998"
   height="25"
   viewBox="0 0 24.999998 25"
   sodipodi:docname="split.svg"
   inkscape:version="1.3.2 (1:1.3.2+202311252150+091e20ef0f)"
   xmlns:inkscape="http://www.inkscape.org/namespaces/inkscape"
   xmlns:sodipodi="http://sodipodi.sourceforge.net/DTD/sodipodi-0.dtd"
   xmlns="http://www.w3.org/2000/svg"
   xmlns:svg="http://www.w3.org/2000/svg">
  <defs
     id="defs1" />
  <sodipodi:namedview
     id="namedview1"
     pagecolor="#ffffff"
     bordercolor="#999999"
     borderopacity="1"
     inkscape:showpageshadow="2"
     inkscape:pageopacity="0"
     inkscape:pagecheckerboard="0"
     inkscape:deskcolor="#d1d1d1"
     inkscape:zoom="18.585937"
     inkscape:cx="9.4964274"
     inkscape:cy="11.944515"
     inkscape:window-width="1920"
     inkscape:window-height="1037"
     inkscape:window-x="0"
     inkscape:window-y="0"
     inkscape:window-maximized="1"
     inkscape:current-layer="g1" />
  <g
     inkscape:groupmode="layer"
     inkscape:label="Image"
     id="g1"
     transform="translate(-32.268364,-6.4041647)">
    <g
       id="g2">
      <path
         style="fill:#4b5563;stroke-width:0;fill-opacity:1;stroke:#000000;stroke-opacity:1;stroke-dasharray:none;stroke-miterlimit:3.7;stroke-dashoffset:0"
         d="M 32.268364,27.448146 V 23.49213 l 4.711915,0.02535 4.711913,0.02535 0.02552,3.930664 0.02552,3.930664 H 37.0058 32.268364 Z m 15.55065,0.02535 0.02552,-3.930664 4.711914,-0.02535 4.711914,-0.02535 v 3.956016 3.956016 H 52.530926 47.79349 Z m -7.770702,-5.411784 c -0.08813,-0.08813 -0.08348,-3.157552 0.0048,-3.157552 0.03844,0 0.283887,0.20874 0.545442,0.463867 l 0.475556,0.463867 0.47333,-0.523905 c 0.547138,-0.6056 1.201378,-1.852489 1.41603,-2.698751 0.08174,-0.322266 0.176224,-0.969339 0.209962,-1.437942 l 0.06134,-0.852003 -1.601361,-0.0269 -1.60136,-0.0269 -0.02552,-3.930664 -0.02552,-3.9306643 h 4.787372 4.787372 l -0.02552,3.9261263 -0.02552,3.926126 -1.5625,0.0045 -1.5625,0.0045 0.0138,0.835107 c 0.0076,0.459309 0.08437,1.118488 0.170628,1.464844 0.219137,0.879938 0.864641,2.122115 1.425182,2.74255 l 0.47333,0.523905 0.475556,-0.463867 c 0.261555,-0.255127 0.508093,-0.463867 0.547861,-0.463867 0.03977,0 0.06023,0.714111 0.04547,1.586914 l -0.02683,1.586914 -1.586914,0.02683 c -0.872802,0.01476 -1.586914,-0.0091 -1.586914,-0.05291 0,-0.04386 0.197754,-0.273823 0.439453,-0.511034 0.2417,-0.237209 0.439454,-0.480398 0.439454,-0.540419 0,-0.06002 -0.114622,-0.215666 -0.254715,-0.345878 C 46.196904,19.949805 45.277884,18.275855 44.986823,17.069423 44.893533,16.68276 44.79524,16.3664 44.768384,16.3664 c -0.02685,0 -0.125153,0.31636 -0.218438,0.703023 -0.289743,1.200961 -1.175905,2.833887 -1.919745,3.537503 -0.166773,0.157753 -0.303223,0.335371 -0.303223,0.394706 0,0.05934 0.197754,0.301962 0.439453,0.539171 0.241699,0.237211 0.439453,0.466086 0.439453,0.508615 0,0.09322 -3.064691,0.10508 -3.157552,0.01222 z"
         id="path1" />
      <path
         id="rect1"
         style="fill:#ffffff;fill-opacity:1;stroke:#000000;stroke-width:0;stroke-miterlimit:3.7;stroke-dasharray:none;stroke-dashoffset:0;stroke-opacity:1;paint-order:stroke fill markers"
         d="m 41.957031,12.285156 c 1.866537,0 3.733073,0 5.59961,0 0,-1.289713 0,-2.5794268 0,-3.8691404 -1.866537,0 -3.733073,0 -5.59961,0 0,1.2897136 0,2.5794274 0,3.8691404 z" />
      <path
         id="rect1-3"
         style="fill:#ffffff;fill-opacity:1;stroke:#000000;stroke-width:0;stroke-miterlimit:3.7;stroke-dasharray:none;stroke-dashoffset:0;stroke-opacity:1;paint-order:stroke fill markers"
         d="m 34.142578,29.390625 c 1.866537,0 3.733073,0 5.59961,0 -10e-7,-1.289714 0,-2.579427 0,-3.869141 -1.866537,0 -3.733073,0 -5.59961,0 0,1.289714 0,2.579427 0,3.869141 z" />
      <path
         id="rect1-3-1"
         style="fill:#ffffff;fill-opacity:1;stroke:#000000;stroke-width:0;stroke-miterlimit:3.7;stroke-dasharray:none;stroke-dashoffset:0;stroke-opacity:1;paint-order:stroke fill markers"
         d="m 49.787109,29.361328 c 1.866537,0 3.733073,0 5.59961,0 0,-1.290364 0,-2.580729 0,-3.871094 -1.866537,0 -3.733073,0 -5.59961,0 0,1.290365 0,2.58073 0,3.871094 z" />
    </g>
  </g>
</svg>
